# xmcd CD database file
#
# Track frame offsets:
#	150
#	16970
#	31816
#	49027
#	59988
#	72087
#	87478
#	102464
#	117678
#	131942
#	146791
#	157717
#	170559
#	189224
#
# Disc length: 2691 seconds
#
# Revision: 2
# Processed by: cddbd v1.5.2PL0 Copyright (c) Steve Scherf et al.
# Submitted via: CDex 1.79
#
DISCID=cb0a810e
DTITLE=Arly Karlsen - Sweet Honky Tonk
DYEAR=2005
DGENRE=Country
TTITLE0=Hello Darlin'
TTITLE1=Heartaches By The Number
TTITLE2=Just For The Love Of It
TTITLE3=Walking The Floor Over Me
TTITLE4=Things
TTITLE5=My Woman
TTITLE6=The Gambler
TTITLE7=One Less Honky Tonk (featuring Pauline Reese)
TTITLE8=Good All Over Feeling
TTITLE9=My Rose
TTITLE10=If Heartaches Were Pennies (featuring Pat Roden)
TTITLE11=From A Jack To A King
TTITLE12=Honky Tonk Night Time Man
TTITLE13=Norway USA
EXTD=YEAR: 2005
EXTT0=
EXTT1=
EXTT2=
EXTT3=
EXTT4=
EXTT5=
EXTT6=
EXTT7=
EXTT8=
EXTT9=
EXTT10=
EXTT11=
EXTT12=
EXTT13=
PLAYORDER=
